<svg width="332" height="98" viewBox="0 0 332 98" fill="none" xmlns="http://www.w3.org/2000/svg">
<path d="M82.76 48.96C82.76 46.1867 83.2507 43.4773 84.232 40.832C85.2133 38.144 86.6427 35.712 88.52 33.536C90.44 31.3173 92.7653 29.568 95.496 28.288C98.2267 26.9653 101.32 26.304 104.776 26.304C108.872 26.304 112.413 27.2427 115.4 29.12C118.387 30.9547 120.605 33.3227 122.056 36.224L116.424 40C115.571 38.1653 114.483 36.7147 113.16 35.648C111.88 34.5813 110.472 33.8347 108.936 33.408C107.443 32.9813 105.971 32.768 104.52 32.768C102.131 32.768 100.04 33.2587 98.248 34.24C96.456 35.1787 94.9413 36.4373 93.704 38.016C92.5093 39.5947 91.592 41.3653 90.952 43.328C90.3547 45.2907 90.056 47.2533 90.056 49.216C90.056 51.392 90.4187 53.504 91.144 55.552C91.8693 57.5573 92.872 59.3493 94.152 60.928C95.4747 62.464 97.032 63.68 98.824 64.576C100.616 65.472 102.579 65.92 104.712 65.92C106.163 65.92 107.677 65.664 109.256 65.152C110.835 64.64 112.285 63.8507 113.608 62.784C114.973 61.6747 116.04 60.224 116.808 58.432L122.76 61.824C121.821 64.0853 120.349 66.0053 118.344 67.584C116.381 69.1627 114.163 70.3573 111.688 71.168C109.256 71.9787 106.845 72.384 104.456 72.384C101.256 72.384 98.3333 71.7227 95.688 70.4C93.0427 69.0347 90.76 67.2427 88.84 65.024C86.92 62.7627 85.4267 60.2453 84.36 57.472C83.2933 54.656 82.76 51.8187 82.76 48.96ZM124.334 59.008V38.528H131.374V57.6C131.374 60.5867 131.907 62.848 132.974 64.384C134.083 65.8773 135.683 66.624 137.774 66.624C139.097 66.624 140.377 66.3467 141.614 65.792C142.894 65.2373 144.046 64.4267 145.07 63.36C146.137 62.2507 146.99 60.928 147.63 59.392V38.528H154.67V64.064C154.67 64.8747 154.819 65.4507 155.118 65.792C155.417 66.1333 155.907 66.3253 156.59 66.368V72C155.865 72.128 155.267 72.2133 154.798 72.256C154.329 72.2987 153.881 72.32 153.454 72.32C152.174 72.32 151.107 71.9787 150.254 71.296C149.401 70.5707 148.91 69.6533 148.782 68.544L148.654 65.216C147.161 67.648 145.219 69.504 142.83 70.784C140.441 72.0213 137.817 72.64 134.958 72.64C131.459 72.64 128.814 71.488 127.022 69.184C125.23 66.88 124.334 63.488 124.334 59.008ZM178.822 72.64C176.134 72.64 173.766 72 171.718 70.72C169.67 69.44 168.049 67.776 166.854 65.728V85.632H159.814V38.528H166.022V44.544C167.302 42.5387 168.966 40.9387 171.014 39.744C173.062 38.5493 175.345 37.952 177.862 37.952C180.166 37.952 182.278 38.4213 184.198 39.36C186.118 40.256 187.782 41.5147 189.19 43.136C190.598 44.7573 191.686 46.6133 192.454 48.704C193.265 50.752 193.67 52.928 193.67 55.232C193.67 58.432 193.03 61.3547 191.75 64C190.513 66.6453 188.763 68.7573 186.502 70.336C184.283 71.872 181.723 72.64 178.822 72.64ZM176.518 66.624C178.011 66.624 179.355 66.304 180.55 65.664C181.787 65.024 182.833 64.1707 183.686 63.104C184.582 62.0373 185.265 60.8213 185.734 59.456C186.203 58.0907 186.438 56.6827 186.438 55.232C186.438 53.696 186.182 52.2453 185.67 50.88C185.158 49.5147 184.411 48.32 183.43 47.296C182.491 46.272 181.382 45.4613 180.102 44.864C178.865 44.2667 177.499 43.968 176.006 43.968C175.11 43.968 174.171 44.1387 173.19 44.48C172.209 44.8213 171.291 45.2907 170.438 45.888C169.585 46.4853 168.838 47.1893 168.198 48C167.558 48.8107 167.11 49.664 166.854 50.56V59.328C167.451 60.6933 168.241 61.9307 169.222 63.04C170.203 64.1067 171.334 64.9813 172.614 65.664C173.894 66.304 175.195 66.624 176.518 66.624ZM211.202 72.64C208.556 72.64 206.188 72.192 204.098 71.296C202.007 70.3573 200.194 69.0773 198.658 67.456C197.164 65.8347 196.012 64 195.202 61.952C194.391 59.8613 193.986 57.6427 193.986 55.296C193.986 52.9493 194.391 50.7307 195.202 48.64C196.012 46.5493 197.164 44.7147 198.658 43.136C200.194 41.5147 202.007 40.256 204.098 39.36C206.231 38.4213 208.599 37.952 211.202 37.952C213.804 37.952 216.151 38.4213 218.242 39.36C220.375 40.256 222.188 41.5147 223.682 43.136C225.218 44.7147 226.391 46.5493 227.201 48.64C228.012 50.7307 228.418 52.9493 228.418 55.296C228.418 57.6427 228.012 59.8613 227.201 61.952C226.391 64 225.218 65.8347 223.682 67.456C222.188 69.0773 220.375 70.3573 218.242 71.296C216.151 72.192 213.804 72.64 211.202 72.64ZM201.218 55.36C201.218 57.4933 201.666 59.4133 202.562 61.12C203.458 62.8267 204.652 64.1707 206.146 65.152C207.639 66.1333 209.324 66.624 211.202 66.624C213.036 66.624 214.7 66.1333 216.194 65.152C217.73 64.128 218.946 62.7627 219.842 61.056C220.738 59.3067 221.186 57.3867 221.186 55.296C221.186 53.1627 220.738 51.2427 219.842 49.536C218.946 47.8293 217.73 46.4853 216.194 45.504C214.7 44.48 213.036 43.968 211.202 43.968C209.324 43.968 207.639 44.48 206.146 45.504C204.652 46.528 203.458 47.8933 202.562 49.6C201.666 51.264 201.218 53.184 201.218 55.36ZM260.838 72H253.798V53.248C253.798 50.1333 253.286 47.8507 252.262 46.4C251.28 44.9493 249.808 44.224 247.846 44.224C246.48 44.224 245.115 44.5653 243.75 45.248C242.427 45.9307 241.232 46.8693 240.166 48.064C239.099 49.216 238.331 50.56 237.862 52.096V72H230.822V38.528H237.222V45.248C238.075 43.7547 239.184 42.4747 240.55 41.408C241.958 40.2987 243.536 39.4453 245.286 38.848C247.035 38.2507 248.891 37.952 250.854 37.952C252.859 37.952 254.502 38.3147 255.782 39.04C257.104 39.7653 258.128 40.768 258.854 42.048C259.622 43.2853 260.134 44.736 260.39 46.4C260.688 48.0213 260.838 49.7493 260.838 51.584V72ZM281.169 26.56H283.985L303.185 72H299.729L293.393 57.024H271.697L265.361 72H261.841L281.169 26.56ZM292.497 54.336L282.577 30.528L272.465 54.336H292.497ZM306.245 72V26.56H309.509V72H306.245Z" fill="white"/>
<path d="M32.2653 19.9022C33.8509 13.3659 43.1491 13.3659 44.7347 19.9022C44.9726 20.8841 45.439 21.796 46.096 22.5636C46.7529 23.3312 47.5818 23.9328 48.5152 24.3195C49.4486 24.7062 50.4601 24.8671 51.4674 24.789C52.4747 24.7109 53.4494 24.396 54.312 23.8701C60.0554 20.3712 66.6326 26.9446 63.1337 32.6917C62.6085 33.554 62.2941 34.528 62.2162 35.5347C62.1383 36.5413 62.299 37.5521 62.6852 38.4849C63.0715 39.4177 63.6724 40.2463 64.4391 40.9031C65.2059 41.56 66.1168 42.0267 67.0978 42.2653C73.6341 43.8509 73.6341 53.1491 67.0978 54.7347C66.1159 54.9726 65.204 55.439 64.4364 56.096C63.6688 56.7529 63.0672 57.5818 62.6805 58.5152C62.2938 59.4486 62.1329 60.4601 62.211 61.4674C62.2891 62.4747 62.604 63.4494 63.1299 64.312C66.6288 70.0554 60.0554 76.6326 54.3083 73.1337C53.446 72.6085 52.472 72.2941 51.4653 72.2162C50.4587 72.1383 49.4479 72.299 48.5151 72.6852C47.5823 73.0715 46.7537 73.6724 46.0969 74.4391C45.44 75.2059 44.9733 76.1168 44.7347 77.0978C43.1491 83.6341 33.8509 83.6341 32.2653 77.0978C32.0274 76.1159 31.561 75.204 30.904 74.4364C30.2471 73.6688 29.4182 73.0672 28.4848 72.6805C27.5514 72.2938 26.5399 72.1329 25.5326 72.211C24.5253 72.2891 23.5506 72.604 22.688 73.1299C16.9446 76.6288 10.3674 70.0554 13.8663 64.3083C14.3915 63.446 14.7059 62.472 14.7838 61.4653C14.8617 60.4587 14.701 59.4479 14.3148 58.5151C13.9285 57.5823 13.3276 56.7537 12.5608 56.0969C11.7941 55.44 10.8832 54.9733 9.90217 54.7347C3.36594 53.1491 3.36594 43.8509 9.90217 42.2653C10.8841 42.0274 11.796 41.561 12.5636 40.904C13.3312 40.2471 13.9328 39.4182 14.3195 38.4848C14.7062 37.5514 14.8671 36.5399 14.789 35.5326C14.7109 34.5253 14.396 33.5506 13.8701 32.688C10.3712 26.9446 16.9446 20.3674 22.6917 23.8663C26.3991 26.1294 31.2379 24.1269 32.2653 19.9022Z" stroke="white" stroke-width="9" stroke-linecap="round" stroke-linejoin="round"/>
</svg>
