<svg width="268" height="98" viewBox="0 0 268 98" fill="none" xmlns="http://www.w3.org/2000/svg">
<path d="M18.76 48.96C18.76 46.1867 19.2507 43.4773 20.232 40.832C21.2133 38.144 22.6427 35.712 24.52 33.536C26.44 31.3173 28.7653 29.568 31.496 28.288C34.2267 26.9653 37.32 26.304 40.776 26.304C44.872 26.304 48.4133 27.2427 51.4 29.12C54.3867 30.9547 56.6053 33.3227 58.056 36.224L52.424 40C51.5707 38.1653 50.4827 36.7147 49.16 35.648C47.88 34.5813 46.472 33.8347 44.936 33.408C43.4427 32.9813 41.9707 32.768 40.52 32.768C38.1307 32.768 36.04 33.2587 34.248 34.24C32.456 35.1787 30.9413 36.4373 29.704 38.016C28.5093 39.5947 27.592 41.3653 26.952 43.328C26.3547 45.2907 26.056 47.2533 26.056 49.216C26.056 51.392 26.4187 53.504 27.144 55.552C27.8693 57.5573 28.872 59.3493 30.152 60.928C31.4747 62.464 33.032 63.68 34.824 64.576C36.616 65.472 38.5787 65.92 40.712 65.92C42.1627 65.92 43.6773 65.664 45.256 65.152C46.8347 64.64 48.2853 63.8507 49.608 62.784C50.9733 61.6747 52.04 60.224 52.808 58.432L58.76 61.824C57.8213 64.0853 56.3493 66.0053 54.344 67.584C52.3813 69.1627 50.1627 70.3573 47.688 71.168C45.256 71.9787 42.8453 72.384 40.456 72.384C37.256 72.384 34.3333 71.7227 31.688 70.4C29.0427 69.0347 26.76 67.2427 24.84 65.024C22.92 62.7627 21.4267 60.2453 20.36 57.472C19.2933 54.656 18.76 51.8187 18.76 48.96ZM60.334 59.008V38.528H67.374V57.6C67.374 60.5867 67.9073 62.848 68.974 64.384C70.0833 65.8773 71.6833 66.624 73.774 66.624C75.0967 66.624 76.3767 66.3467 77.614 65.792C78.894 65.2373 80.046 64.4267 81.07 63.36C82.1367 62.2507 82.99 60.928 83.63 59.392V38.528H90.67V64.064C90.67 64.8747 90.8193 65.4507 91.118 65.792C91.4167 66.1333 91.9073 66.3253 92.59 66.368V72C91.8647 72.128 91.2673 72.2133 90.798 72.256C90.3287 72.2987 89.8807 72.32 89.454 72.32C88.174 72.32 87.1073 71.9787 86.254 71.296C85.4007 70.5707 84.91 69.6533 84.782 68.544L84.654 65.216C83.1607 67.648 81.2193 69.504 78.83 70.784C76.4407 72.0213 73.8167 72.64 70.958 72.64C67.4593 72.64 64.814 71.488 63.022 69.184C61.23 66.88 60.334 63.488 60.334 59.008ZM114.822 72.64C112.134 72.64 109.766 72 107.718 70.72C105.67 69.44 104.049 67.776 102.854 65.728V85.632H95.814V38.528H102.022V44.544C103.302 42.5387 104.966 40.9387 107.014 39.744C109.062 38.5493 111.345 37.952 113.862 37.952C116.166 37.952 118.278 38.4213 120.198 39.36C122.118 40.256 123.782 41.5147 125.19 43.136C126.598 44.7573 127.686 46.6133 128.454 48.704C129.265 50.752 129.67 52.928 129.67 55.232C129.67 58.432 129.03 61.3547 127.75 64C126.513 66.6453 124.763 68.7573 122.502 70.336C120.283 71.872 117.723 72.64 114.822 72.64ZM112.518 66.624C114.011 66.624 115.355 66.304 116.55 65.664C117.787 65.024 118.833 64.1707 119.686 63.104C120.582 62.0373 121.265 60.8213 121.734 59.456C122.203 58.0907 122.438 56.6827 122.438 55.232C122.438 53.696 122.182 52.2453 121.67 50.88C121.158 49.5147 120.411 48.32 119.43 47.296C118.491 46.272 117.382 45.4613 116.102 44.864C114.865 44.2667 113.499 43.968 112.006 43.968C111.11 43.968 110.171 44.1387 109.19 44.48C108.209 44.8213 107.291 45.2907 106.438 45.888C105.585 46.4853 104.838 47.1893 104.198 48C103.558 48.8107 103.11 49.664 102.854 50.56V59.328C103.451 60.6933 104.241 61.9307 105.222 63.04C106.203 64.1067 107.334 64.9813 108.614 65.664C109.894 66.304 111.195 66.624 112.518 66.624ZM147.202 72.64C144.556 72.64 142.188 72.192 140.098 71.296C138.007 70.3573 136.194 69.0773 134.658 67.456C133.164 65.8347 132.012 64 131.202 61.952C130.391 59.8613 129.986 57.6427 129.986 55.296C129.986 52.9493 130.391 50.7307 131.202 48.64C132.012 46.5493 133.164 44.7147 134.658 43.136C136.194 41.5147 138.007 40.256 140.098 39.36C142.231 38.4213 144.599 37.952 147.202 37.952C149.804 37.952 152.151 38.4213 154.242 39.36C156.375 40.256 158.188 41.5147 159.682 43.136C161.218 44.7147 162.391 46.5493 163.201 48.64C164.012 50.7307 164.418 52.9493 164.418 55.296C164.418 57.6427 164.012 59.8613 163.201 61.952C162.391 64 161.218 65.8347 159.682 67.456C158.188 69.0773 156.375 70.3573 154.242 71.296C152.151 72.192 149.804 72.64 147.202 72.64ZM137.218 55.36C137.218 57.4933 137.666 59.4133 138.562 61.12C139.458 62.8267 140.652 64.1707 142.146 65.152C143.639 66.1333 145.324 66.624 147.202 66.624C149.036 66.624 150.7 66.1333 152.194 65.152C153.73 64.128 154.946 62.7627 155.842 61.056C156.738 59.3067 157.186 57.3867 157.186 55.296C157.186 53.1627 156.738 51.2427 155.842 49.536C154.946 47.8293 153.73 46.4853 152.194 45.504C150.7 44.48 149.036 43.968 147.202 43.968C145.324 43.968 143.639 44.48 142.146 45.504C140.652 46.528 139.458 47.8933 138.562 49.6C137.666 51.264 137.218 53.184 137.218 55.36ZM196.838 72H189.798V53.248C189.798 50.1333 189.286 47.8507 188.262 46.4C187.28 44.9493 185.808 44.224 183.846 44.224C182.48 44.224 181.115 44.5653 179.75 45.248C178.427 45.9307 177.232 46.8693 176.166 48.064C175.099 49.216 174.331 50.56 173.862 52.096V72H166.822V38.528H173.222V45.248C174.075 43.7547 175.184 42.4747 176.55 41.408C177.958 40.2987 179.536 39.4453 181.286 38.848C183.035 38.2507 184.891 37.952 186.854 37.952C188.859 37.952 190.502 38.3147 191.782 39.04C193.104 39.7653 194.128 40.768 194.854 42.048C195.622 43.2853 196.134 44.736 196.39 46.4C196.688 48.0213 196.838 49.7493 196.838 51.584V72ZM217.169 26.56H219.985L239.185 72H235.729L229.393 57.024H207.697L201.361 72H197.841L217.169 26.56ZM228.497 54.336L218.577 30.528L208.465 54.336H228.497ZM242.245 72V26.56H245.509V72H242.245Z" fill="#FFB084"/>
</svg>
