<svg width="333" height="98" viewBox="0 0 333 98" fill="none" xmlns="http://www.w3.org/2000/svg">
<path d="M83.76 48.96C83.76 46.1867 84.2507 43.4773 85.232 40.832C86.2133 38.144 87.6427 35.712 89.52 33.536C91.44 31.3173 93.7653 29.568 96.496 28.288C99.2267 26.9653 102.32 26.304 105.776 26.304C109.872 26.304 113.413 27.2427 116.4 29.12C119.387 30.9547 121.605 33.3227 123.056 36.224L117.424 40C116.571 38.1653 115.483 36.7147 114.16 35.648C112.88 34.5813 111.472 33.8347 109.936 33.408C108.443 32.9813 106.971 32.768 105.52 32.768C103.131 32.768 101.04 33.2587 99.248 34.24C97.456 35.1787 95.9413 36.4373 94.704 38.016C93.5093 39.5947 92.592 41.3653 91.952 43.328C91.3547 45.2907 91.056 47.2533 91.056 49.216C91.056 51.392 91.4187 53.504 92.144 55.552C92.8693 57.5573 93.872 59.3493 95.152 60.928C96.4747 62.464 98.032 63.68 99.824 64.576C101.616 65.472 103.579 65.92 105.712 65.92C107.163 65.92 108.677 65.664 110.256 65.152C111.835 64.64 113.285 63.8507 114.608 62.784C115.973 61.6747 117.04 60.224 117.808 58.432L123.76 61.824C122.821 64.0853 121.349 66.0053 119.344 67.584C117.381 69.1627 115.163 70.3573 112.688 71.168C110.256 71.9787 107.845 72.384 105.456 72.384C102.256 72.384 99.3333 71.7227 96.688 70.4C94.0427 69.0347 91.76 67.2427 89.84 65.024C87.92 62.7627 86.4267 60.2453 85.36 57.472C84.2933 54.656 83.76 51.8187 83.76 48.96ZM125.334 59.008V38.528H132.374V57.6C132.374 60.5867 132.907 62.848 133.974 64.384C135.083 65.8773 136.683 66.624 138.774 66.624C140.097 66.624 141.377 66.3467 142.614 65.792C143.894 65.2373 145.046 64.4267 146.07 63.36C147.137 62.2507 147.99 60.928 148.63 59.392V38.528H155.67V64.064C155.67 64.8747 155.819 65.4507 156.118 65.792C156.417 66.1333 156.907 66.3253 157.59 66.368V72C156.865 72.128 156.267 72.2133 155.798 72.256C155.329 72.2987 154.881 72.32 154.454 72.32C153.174 72.32 152.107 71.9787 151.254 71.296C150.401 70.5707 149.91 69.6533 149.782 68.544L149.654 65.216C148.161 67.648 146.219 69.504 143.83 70.784C141.441 72.0213 138.817 72.64 135.958 72.64C132.459 72.64 129.814 71.488 128.022 69.184C126.23 66.88 125.334 63.488 125.334 59.008ZM179.822 72.64C177.134 72.64 174.766 72 172.718 70.72C170.67 69.44 169.049 67.776 167.854 65.728V85.632H160.814V38.528H167.022V44.544C168.302 42.5387 169.966 40.9387 172.014 39.744C174.062 38.5493 176.345 37.952 178.862 37.952C181.166 37.952 183.278 38.4213 185.198 39.36C187.118 40.256 188.782 41.5147 190.19 43.136C191.598 44.7573 192.686 46.6133 193.454 48.704C194.265 50.752 194.67 52.928 194.67 55.232C194.67 58.432 194.03 61.3547 192.75 64C191.513 66.6453 189.763 68.7573 187.502 70.336C185.283 71.872 182.723 72.64 179.822 72.64ZM177.518 66.624C179.011 66.624 180.355 66.304 181.55 65.664C182.787 65.024 183.833 64.1707 184.686 63.104C185.582 62.0373 186.265 60.8213 186.734 59.456C187.203 58.0907 187.438 56.6827 187.438 55.232C187.438 53.696 187.182 52.2453 186.67 50.88C186.158 49.5147 185.411 48.32 184.43 47.296C183.491 46.272 182.382 45.4613 181.102 44.864C179.865 44.2667 178.499 43.968 177.006 43.968C176.11 43.968 175.171 44.1387 174.19 44.48C173.209 44.8213 172.291 45.2907 171.438 45.888C170.585 46.4853 169.838 47.1893 169.198 48C168.558 48.8107 168.11 49.664 167.854 50.56V59.328C168.451 60.6933 169.241 61.9307 170.222 63.04C171.203 64.1067 172.334 64.9813 173.614 65.664C174.894 66.304 176.195 66.624 177.518 66.624ZM212.202 72.64C209.556 72.64 207.188 72.192 205.098 71.296C203.007 70.3573 201.194 69.0773 199.658 67.456C198.164 65.8347 197.012 64 196.202 61.952C195.391 59.8613 194.986 57.6427 194.986 55.296C194.986 52.9493 195.391 50.7307 196.202 48.64C197.012 46.5493 198.164 44.7147 199.658 43.136C201.194 41.5147 203.007 40.256 205.098 39.36C207.231 38.4213 209.599 37.952 212.202 37.952C214.804 37.952 217.151 38.4213 219.242 39.36C221.375 40.256 223.188 41.5147 224.682 43.136C226.218 44.7147 227.391 46.5493 228.201 48.64C229.012 50.7307 229.418 52.9493 229.418 55.296C229.418 57.6427 229.012 59.8613 228.201 61.952C227.391 64 226.218 65.8347 224.682 67.456C223.188 69.0773 221.375 70.3573 219.242 71.296C217.151 72.192 214.804 72.64 212.202 72.64ZM202.218 55.36C202.218 57.4933 202.666 59.4133 203.562 61.12C204.458 62.8267 205.652 64.1707 207.146 65.152C208.639 66.1333 210.324 66.624 212.202 66.624C214.036 66.624 215.7 66.1333 217.194 65.152C218.73 64.128 219.946 62.7627 220.842 61.056C221.738 59.3067 222.186 57.3867 222.186 55.296C222.186 53.1627 221.738 51.2427 220.842 49.536C219.946 47.8293 218.73 46.4853 217.194 45.504C215.7 44.48 214.036 43.968 212.202 43.968C210.324 43.968 208.639 44.48 207.146 45.504C205.652 46.528 204.458 47.8933 203.562 49.6C202.666 51.264 202.218 53.184 202.218 55.36ZM261.838 72H254.798V53.248C254.798 50.1333 254.286 47.8507 253.262 46.4C252.28 44.9493 250.808 44.224 248.846 44.224C247.48 44.224 246.115 44.5653 244.75 45.248C243.427 45.9307 242.232 46.8693 241.166 48.064C240.099 49.216 239.331 50.56 238.862 52.096V72H231.822V38.528H238.222V45.248C239.075 43.7547 240.184 42.4747 241.55 41.408C242.958 40.2987 244.536 39.4453 246.286 38.848C248.035 38.2507 249.891 37.952 251.854 37.952C253.859 37.952 255.502 38.3147 256.782 39.04C258.104 39.7653 259.128 40.768 259.854 42.048C260.622 43.2853 261.134 44.736 261.39 46.4C261.688 48.0213 261.838 49.7493 261.838 51.584V72ZM282.169 26.56H284.985L304.185 72H300.729L294.393 57.024H272.697L266.361 72H262.841L282.169 26.56ZM293.497 54.336L283.577 30.528L273.465 54.336H293.497ZM307.245 72V26.56H310.509V72H307.245Z" fill="#00C8B3"/>
<path d="M32.2653 20.9022C33.8509 14.3659 43.1491 14.3659 44.7347 20.9022C44.9726 21.8841 45.439 22.796 46.096 23.5636C46.7529 24.3312 47.5818 24.9328 48.5152 25.3195C49.4486 25.7062 50.4601 25.8671 51.4674 25.789C52.4747 25.7109 53.4494 25.396 54.312 24.8701C60.0554 21.3712 66.6326 27.9446 63.1337 33.6917C62.6085 34.554 62.2941 35.528 62.2162 36.5347C62.1383 37.5413 62.299 38.5521 62.6852 39.4849C63.0715 40.4177 63.6724 41.2463 64.4391 41.9031C65.2059 42.56 66.1168 43.0267 67.0978 43.2653C73.6341 44.8509 73.6341 54.1491 67.0978 55.7347C66.1159 55.9726 65.204 56.439 64.4364 57.096C63.6688 57.7529 63.0672 58.5818 62.6805 59.5152C62.2938 60.4486 62.1329 61.4601 62.211 62.4674C62.2891 63.4747 62.604 64.4494 63.1299 65.312C66.6288 71.0554 60.0554 77.6326 54.3083 74.1337C53.446 73.6085 52.472 73.2941 51.4653 73.2162C50.4587 73.1383 49.4479 73.299 48.5151 73.6852C47.5823 74.0715 46.7537 74.6724 46.0969 75.4391C45.44 76.2059 44.9733 77.1168 44.7347 78.0978C43.1491 84.6341 33.8509 84.6341 32.2653 78.0978C32.0274 77.1159 31.561 76.204 30.904 75.4364C30.2471 74.6688 29.4182 74.0672 28.4848 73.6805C27.5514 73.2938 26.5399 73.1329 25.5326 73.211C24.5253 73.2891 23.5506 73.604 22.688 74.1299C16.9446 77.6288 10.3674 71.0554 13.8663 65.3083C14.3915 64.446 14.7059 63.472 14.7838 62.4653C14.8617 61.4587 14.701 60.4479 14.3148 59.5151C13.9285 58.5823 13.3276 57.7537 12.5608 57.0969C11.7941 56.44 10.8832 55.9733 9.90217 55.7347C3.36594 54.1491 3.36594 44.8509 9.90217 43.2653C10.8841 43.0274 11.796 42.561 12.5636 41.904C13.3312 41.2471 13.9328 40.4182 14.3195 39.4848C14.7062 38.5514 14.8671 37.5399 14.789 36.5326C14.7109 35.5253 14.396 34.5506 13.8701 33.688C10.3712 27.9446 16.9446 21.3674 22.6917 24.8663C26.3991 27.1294 31.2379 25.1269 32.2653 20.9022Z" stroke="#00C8B3" stroke-width="9" stroke-linecap="round" stroke-linejoin="round"/>
</svg>
