<svg width="299" height="147" viewBox="0 0 299 147" fill="none" xmlns="http://www.w3.org/2000/svg">
<rect x="12.2705" width="287.693" height="117.389" rx="17" transform="rotate(6 12.2705 0)" fill="#2563EB"/>
<path d="M35.6553 69.3304C35.6553 66.5571 36.1459 63.8478 37.1273 61.2024C38.1086 58.5144 39.5379 56.0824 41.4153 53.9064C43.3353 51.6878 45.6606 49.9384 48.3913 48.6584C51.1219 47.3358 54.2153 46.6744 57.6713 46.6744C61.7673 46.6744 65.3086 47.6131 68.2953 49.4904C71.2819 51.3251 73.5006 53.6931 74.9513 56.5944L69.3193 60.3704C68.4659 58.5358 67.3779 57.0851 66.0553 56.0184C64.7753 54.9518 63.3673 54.2051 61.8313 53.7784C60.3379 53.3518 58.8659 53.1384 57.4153 53.1384C55.0259 53.1384 52.9353 53.6291 51.1433 54.6104C49.3513 55.5491 47.8366 56.8078 46.5993 58.3864C45.4046 59.9651 44.4873 61.7358 43.8473 63.6984C43.2499 65.6611 42.9513 67.6238 42.9513 69.5864C42.9513 71.7624 43.3139 73.8744 44.0393 75.9224C44.7646 77.9278 45.7673 79.7198 47.0473 81.2984C48.3699 82.8344 49.9273 84.0504 51.7193 84.9464C53.5113 85.8424 55.4739 86.2904 57.6073 86.2904C59.0579 86.2904 60.5726 86.0344 62.1513 85.5224C63.7299 85.0104 65.1806 84.2211 66.5033 83.1544C67.8686 82.0451 68.9353 80.5944 69.7033 78.8024L75.6553 82.1944C74.7166 84.4558 73.2446 86.3758 71.2393 87.9544C69.2766 89.5331 67.0579 90.7278 64.5833 91.5384C62.1513 92.3491 59.7406 92.7544 57.3513 92.7544C54.1513 92.7544 51.2286 92.0931 48.5833 90.7704C45.9379 89.4051 43.6553 87.6131 41.7353 85.3944C39.8153 83.1331 38.3219 80.6158 37.2553 77.8424C36.1886 75.0264 35.6553 72.1891 35.6553 69.3304ZM77.2293 79.3784V58.8984H84.2693V77.9704C84.2693 80.9571 84.8026 83.2184 85.8693 84.7544C86.9786 86.2478 88.5786 86.9944 90.6693 86.9944C91.9919 86.9944 93.2719 86.7171 94.5093 86.1624C95.7893 85.6078 96.9413 84.7971 97.9653 83.7304C99.0319 82.6211 99.8853 81.2984 100.525 79.7624V58.8984H107.565V84.4344C107.565 85.2451 107.715 85.8211 108.013 86.1624C108.312 86.5038 108.803 86.6958 109.485 86.7384V92.3704C108.76 92.4984 108.163 92.5838 107.693 92.6264C107.224 92.6691 106.776 92.6904 106.349 92.6904C105.069 92.6904 104.003 92.3491 103.149 91.6664C102.296 90.9411 101.805 90.0238 101.677 88.9144L101.549 85.5864C100.056 88.0184 98.1146 89.8744 95.7253 91.1544C93.3359 92.3918 90.7119 93.0104 87.8533 93.0104C84.3546 93.0104 81.7093 91.8584 79.9173 89.5544C78.1253 87.2504 77.2293 83.8584 77.2293 79.3784ZM131.717 93.0104C129.029 93.0104 126.661 92.3704 124.613 91.0904C122.565 89.8104 120.944 88.1464 119.749 86.0984V106.002H112.709V58.8984H118.917V64.9144C120.197 62.9091 121.861 61.3091 123.909 60.1144C125.957 58.9198 128.24 58.3224 130.757 58.3224C133.061 58.3224 135.173 58.7918 137.093 59.7304C139.013 60.6264 140.677 61.8851 142.085 63.5064C143.493 65.1278 144.581 66.9838 145.349 69.0744C146.16 71.1224 146.565 73.2984 146.565 75.6024C146.565 78.8024 145.925 81.7251 144.645 84.3704C143.408 87.0158 141.659 89.1278 139.397 90.7064C137.179 92.2424 134.619 93.0104 131.717 93.0104ZM129.413 86.9944C130.907 86.9944 132.251 86.6744 133.445 86.0344C134.683 85.3944 135.728 84.5411 136.581 83.4744C137.477 82.4078 138.16 81.1918 138.629 79.8264C139.099 78.4611 139.333 77.0531 139.333 75.6024C139.333 74.0664 139.077 72.6158 138.565 71.2504C138.053 69.8851 137.307 68.6904 136.325 67.6664C135.387 66.6424 134.277 65.8318 132.997 65.2344C131.76 64.6371 130.395 64.3384 128.901 64.3384C128.005 64.3384 127.067 64.5091 126.085 64.8504C125.104 65.1918 124.187 65.6611 123.333 66.2584C122.48 66.8558 121.733 67.5598 121.093 68.3704C120.453 69.1811 120.005 70.0344 119.749 70.9304V79.6984C120.347 81.0638 121.136 82.3011 122.117 83.4104C123.099 84.4771 124.229 85.3518 125.509 86.0344C126.789 86.6744 128.091 86.9944 129.413 86.9944ZM164.097 93.0104C161.451 93.0104 159.083 92.5624 156.993 91.6664C154.902 90.7278 153.089 89.4478 151.553 87.8264C150.059 86.2051 148.907 84.3704 148.097 82.3224C147.286 80.2318 146.881 78.0131 146.881 75.6664C146.881 73.3198 147.286 71.1011 148.097 69.0104C148.907 66.9198 150.059 65.0851 151.553 63.5064C153.089 61.8851 154.902 60.6264 156.993 59.7304C159.126 58.7918 161.494 58.3224 164.097 58.3224C166.699 58.3224 169.046 58.7918 171.137 59.7304C173.27 60.6264 175.083 61.8851 176.577 63.5064C178.113 65.0851 179.286 66.9198 180.097 69.0104C180.907 71.1011 181.313 73.3198 181.313 75.6664C181.313 78.0131 180.907 80.2318 180.097 82.3224C179.286 84.3704 178.113 86.2051 176.577 87.8264C175.083 89.4478 173.27 90.7278 171.137 91.6664C169.046 92.5624 166.699 93.0104 164.097 93.0104ZM154.113 75.7304C154.113 77.8638 154.561 79.7838 155.457 81.4904C156.353 83.1971 157.547 84.5411 159.041 85.5224C160.534 86.5038 162.219 86.9944 164.097 86.9944C165.931 86.9944 167.595 86.5038 169.089 85.5224C170.625 84.4984 171.841 83.1331 172.737 81.4264C173.633 79.6771 174.081 77.7571 174.081 75.6664C174.081 73.5331 173.633 71.6131 172.737 69.9064C171.841 68.1998 170.625 66.8558 169.089 65.8744C167.595 64.8504 165.931 64.3384 164.097 64.3384C162.219 64.3384 160.534 64.8504 159.041 65.8744C157.547 66.8984 156.353 68.2638 155.457 69.9704C154.561 71.6344 154.113 73.5544 154.113 75.7304ZM213.733 92.3704H206.693V73.6184C206.693 70.5038 206.181 68.2211 205.157 66.7704C204.175 65.3198 202.703 64.5944 200.741 64.5944C199.375 64.5944 198.01 64.9358 196.645 65.6184C195.322 66.3011 194.127 67.2398 193.061 68.4344C191.994 69.5864 191.226 70.9304 190.757 72.4664V92.3704H183.717V58.8984H190.117V65.6184C190.97 64.1251 192.079 62.8451 193.445 61.7784C194.853 60.6691 196.431 59.8158 198.181 59.2184C199.93 58.6211 201.786 58.3224 203.749 58.3224C205.754 58.3224 207.397 58.6851 208.677 59.4104C209.999 60.1358 211.023 61.1384 211.749 62.4184C212.517 63.6558 213.029 65.1064 213.285 66.7704C213.583 68.3918 213.733 70.1198 213.733 71.9544V92.3704ZM234.064 46.9304H236.88L256.08 92.3704H252.624L246.288 77.3944H224.592L218.256 92.3704H214.736L234.064 46.9304ZM245.392 74.7064L235.472 50.8984L225.36 74.7064H245.392ZM259.14 92.3704V46.9304H262.404V92.3704H259.14Z" fill="white"/>
</svg>
