<svg width="381" height="156" viewBox="0 0 381 156" fill="none" xmlns="http://www.w3.org/2000/svg">
<rect x="12.2705" width="370.25" height="117.389" rx="17" transform="rotate(6 12.2705 0)" fill="#2563EB"/>
<path d="M117.76 77.96C117.76 75.1867 118.251 72.4773 119.232 69.832C120.213 67.144 121.643 64.712 123.52 62.536C125.44 60.3173 127.765 58.568 130.496 57.288C133.227 55.9653 136.32 55.304 139.776 55.304C143.872 55.304 147.413 56.2427 150.4 58.12C153.387 59.9547 155.605 62.3227 157.056 65.224L151.424 69C150.571 67.1653 149.483 65.7147 148.16 64.648C146.88 63.5813 145.472 62.8347 143.936 62.408C142.443 61.9813 140.971 61.768 139.52 61.768C137.131 61.768 135.04 62.2587 133.248 63.24C131.456 64.1787 129.941 65.4373 128.704 67.016C127.509 68.5947 126.592 70.3653 125.952 72.328C125.355 74.2907 125.056 76.2533 125.056 78.216C125.056 80.392 125.419 82.504 126.144 84.552C126.869 86.5573 127.872 88.3493 129.152 89.928C130.475 91.464 132.032 92.68 133.824 93.576C135.616 94.472 137.579 94.92 139.712 94.92C141.163 94.92 142.677 94.664 144.256 94.152C145.835 93.64 147.285 92.8507 148.608 91.784C149.973 90.6747 151.04 89.224 151.808 87.432L157.76 90.824C156.821 93.0853 155.349 95.0053 153.344 96.584C151.381 98.1627 149.163 99.3573 146.688 100.168C144.256 100.979 141.845 101.384 139.456 101.384C136.256 101.384 133.333 100.723 130.688 99.4C128.043 98.0347 125.76 96.2427 123.84 94.024C121.92 91.7627 120.427 89.2453 119.36 86.472C118.293 83.656 117.76 80.8187 117.76 77.96ZM159.334 88.008V67.528H166.374V86.6C166.374 89.5867 166.907 91.848 167.974 93.384C169.083 94.8773 170.683 95.624 172.774 95.624C174.097 95.624 175.377 95.3467 176.614 94.792C177.894 94.2373 179.046 93.4267 180.07 92.36C181.137 91.2507 181.99 89.928 182.63 88.392V67.528H189.67V93.064C189.67 93.8747 189.819 94.4507 190.118 94.792C190.417 95.1333 190.907 95.3253 191.59 95.368V101C190.865 101.128 190.267 101.213 189.798 101.256C189.329 101.299 188.881 101.32 188.454 101.32C187.174 101.32 186.107 100.979 185.254 100.296C184.401 99.5707 183.91 98.6533 183.782 97.544L183.654 94.216C182.161 96.648 180.219 98.504 177.83 99.784C175.441 101.021 172.817 101.64 169.958 101.64C166.459 101.64 163.814 100.488 162.022 98.184C160.23 95.88 159.334 92.488 159.334 88.008ZM213.822 101.64C211.134 101.64 208.766 101 206.718 99.72C204.67 98.44 203.049 96.776 201.854 94.728V114.632H194.814V67.528H201.022V73.544C202.302 71.5387 203.966 69.9387 206.014 68.744C208.062 67.5493 210.345 66.952 212.862 66.952C215.166 66.952 217.278 67.4213 219.198 68.36C221.118 69.256 222.782 70.5147 224.19 72.136C225.598 73.7573 226.686 75.6133 227.454 77.704C228.265 79.752 228.67 81.928 228.67 84.232C228.67 87.432 228.03 90.3547 226.75 93C225.513 95.6453 223.763 97.7573 221.502 99.336C219.283 100.872 216.723 101.64 213.822 101.64ZM211.518 95.624C213.011 95.624 214.355 95.304 215.55 94.664C216.787 94.024 217.833 93.1707 218.686 92.104C219.582 91.0373 220.265 89.8213 220.734 88.456C221.203 87.0907 221.438 85.6827 221.438 84.232C221.438 82.696 221.182 81.2453 220.67 79.88C220.158 78.5147 219.411 77.32 218.43 76.296C217.491 75.272 216.382 74.4613 215.102 73.864C213.865 73.2667 212.499 72.968 211.006 72.968C210.11 72.968 209.171 73.1387 208.19 73.48C207.209 73.8213 206.291 74.2907 205.438 74.888C204.585 75.4853 203.838 76.1893 203.198 77C202.558 77.8107 202.11 78.664 201.854 79.56V88.328C202.451 89.6933 203.241 90.9307 204.222 92.04C205.203 93.1067 206.334 93.9813 207.614 94.664C208.894 95.304 210.195 95.624 211.518 95.624ZM246.202 101.64C243.556 101.64 241.188 101.192 239.098 100.296C237.007 99.3573 235.194 98.0773 233.658 96.456C232.164 94.8347 231.012 93 230.202 90.952C229.391 88.8613 228.986 86.6427 228.986 84.296C228.986 81.9493 229.391 79.7307 230.202 77.64C231.012 75.5493 232.164 73.7147 233.658 72.136C235.194 70.5147 237.007 69.256 239.098 68.36C241.231 67.4213 243.599 66.952 246.202 66.952C248.804 66.952 251.151 67.4213 253.242 68.36C255.375 69.256 257.188 70.5147 258.682 72.136C260.218 73.7147 261.391 75.5493 262.201 77.64C263.012 79.7307 263.418 81.9493 263.418 84.296C263.418 86.6427 263.012 88.8613 262.201 90.952C261.391 93 260.218 94.8347 258.682 96.456C257.188 98.0773 255.375 99.3573 253.242 100.296C251.151 101.192 248.804 101.64 246.202 101.64ZM236.218 84.36C236.218 86.4933 236.666 88.4133 237.562 90.12C238.458 91.8267 239.652 93.1707 241.146 94.152C242.639 95.1333 244.324 95.624 246.202 95.624C248.036 95.624 249.7 95.1333 251.194 94.152C252.73 93.128 253.946 91.7627 254.842 90.056C255.738 88.3067 256.186 86.3867 256.186 84.296C256.186 82.1627 255.738 80.2427 254.842 78.536C253.946 76.8293 252.73 75.4853 251.194 74.504C249.7 73.48 248.036 72.968 246.202 72.968C244.324 72.968 242.639 73.48 241.146 74.504C239.652 75.528 238.458 76.8933 237.562 78.6C236.666 80.264 236.218 82.184 236.218 84.36ZM295.838 101H288.798V82.248C288.798 79.1333 288.286 76.8507 287.262 75.4C286.28 73.9493 284.808 73.224 282.846 73.224C281.48 73.224 280.115 73.5653 278.75 74.248C277.427 74.9307 276.232 75.8693 275.166 77.064C274.099 78.216 273.331 79.56 272.862 81.096V101H265.822V67.528H272.222V74.248C273.075 72.7547 274.184 71.4747 275.55 70.408C276.958 69.2987 278.536 68.4453 280.286 67.848C282.035 67.2507 283.891 66.952 285.854 66.952C287.859 66.952 289.502 67.3147 290.782 68.04C292.104 68.7653 293.128 69.768 293.854 71.048C294.622 72.2853 295.134 73.736 295.39 75.4C295.688 77.0213 295.838 78.7493 295.838 80.584V101ZM316.169 55.56H318.985L338.185 101H334.729L328.393 86.024H306.697L300.361 101H296.841L316.169 55.56ZM327.497 83.336L317.577 59.528L307.465 83.336H327.497ZM341.245 101V55.56H344.509V101H341.245Z" fill="white"/>
<path d="M67.2653 48.9022C68.8509 42.3659 78.1491 42.3659 79.7347 48.9022C79.9726 49.8841 80.439 50.796 81.096 51.5636C81.7529 52.3312 82.5818 52.9328 83.5152 53.3195C84.4486 53.7062 85.4601 53.8671 86.4674 53.789C87.4747 53.7109 88.4494 53.396 89.312 52.8701C95.0554 49.3712 101.633 55.9446 98.1337 61.6917C97.6085 62.554 97.2941 63.528 97.2162 64.5347C97.1383 65.5413 97.299 66.5521 97.6852 67.4849C98.0715 68.4177 98.6724 69.2463 99.4391 69.9031C100.206 70.56 101.117 71.0267 102.098 71.2653C108.634 72.8509 108.634 82.1491 102.098 83.7347C101.116 83.9726 100.204 84.439 99.4364 85.096C98.6688 85.7529 98.0672 86.5818 97.6805 87.5152C97.2938 88.4486 97.1329 89.4601 97.211 90.4674C97.2891 91.4747 97.604 92.4494 98.1299 93.312C101.629 99.0554 95.0554 105.633 89.3083 102.134C88.446 101.608 87.472 101.294 86.4653 101.216C85.4587 101.138 84.4479 101.299 83.5151 101.685C82.5823 102.072 81.7537 102.672 81.0969 103.439C80.44 104.206 79.9733 105.117 79.7347 106.098C78.1491 112.634 68.8509 112.634 67.2653 106.098C67.0274 105.116 66.561 104.204 65.904 103.436C65.2471 102.669 64.4182 102.067 63.4848 101.68C62.5514 101.294 61.5399 101.133 60.5326 101.211C59.5253 101.289 58.5506 101.604 57.688 102.13C51.9446 105.629 45.3674 99.0554 48.8663 93.3083C49.3915 92.446 49.7059 91.472 49.7838 90.4653C49.8617 89.4587 49.701 88.4479 49.3148 87.5151C48.9285 86.5823 48.3276 85.7537 47.5608 85.0969C46.7941 84.44 45.8832 83.9733 44.9022 83.7347C38.3659 82.1491 38.3659 72.8509 44.9022 71.2653C45.8841 71.0274 46.796 70.561 47.5636 69.904C48.3312 69.2471 48.9328 68.4182 49.3195 67.4848C49.7062 66.5514 49.8671 65.5399 49.789 64.5326C49.7109 63.5253 49.396 62.5506 48.8701 61.688C45.3712 55.9446 51.9446 49.3674 57.6917 52.8663C61.3991 55.1294 66.2379 53.1269 67.2653 48.9022Z" stroke="white" stroke-width="9" stroke-linecap="round" stroke-linejoin="round"/>
</svg>
