<svg width="109" height="102" viewBox="0 0 109 102" fill="none" xmlns="http://www.w3.org/2000/svg">
<rect x="9.54739" y="0.162659" width="99.9898" height="91.3377" rx="17" transform="rotate(6 9.54739 0.162659)" fill="#2563EB"/>
<path d="M48.2653 21.9022C49.851 15.366 59.1491 15.366 60.7348 21.9022C60.9727 22.8841 61.4391 23.796 62.096 24.5636C62.7529 25.3312 63.5818 25.9328 64.5152 26.3195C65.4486 26.7063 66.4602 26.8671 67.4675 26.789C68.4748 26.7109 69.4494 26.3961 70.312 25.8701C76.0554 22.3712 82.6326 28.9447 79.1337 34.6918C78.6085 35.554 78.2942 36.5281 78.2162 37.5347C78.1383 38.5413 78.299 39.5521 78.6853 40.485C79.0715 41.4178 79.6725 42.2463 80.4392 42.9032C81.2059 43.5601 82.1168 44.0267 83.0979 44.2653C89.6341 45.851 89.6341 55.1491 83.0979 56.7348C82.116 56.9727 81.2041 57.4391 80.4365 58.096C79.6689 58.753 79.0672 59.5819 78.6805 60.5152C78.2938 61.4486 78.133 62.4602 78.2111 63.4675C78.2892 64.4748 78.604 65.4494 79.13 66.312C82.6289 72.0554 76.0554 78.6326 70.3083 75.1337C69.446 74.6085 68.472 74.2942 67.4654 74.2162C66.4588 74.1383 65.448 74.299 64.5151 74.6853C63.5823 75.0715 62.7538 75.6725 62.0969 76.4392C61.44 77.2059 60.9733 78.1168 60.7348 79.0979C59.1491 85.6341 49.851 85.6341 48.2653 79.0979C48.0274 78.116 47.561 77.2041 46.9041 76.4365C46.2471 75.6689 45.4182 75.0673 44.4848 74.6805C43.5514 74.2938 42.5399 74.133 41.5326 74.2111C40.5253 74.2892 39.5507 74.604 38.688 75.13C32.9446 78.6289 26.3675 72.0554 29.8664 66.3083C30.3916 65.446 30.7059 64.472 30.7838 63.4654C30.8618 62.4588 30.7011 61.448 30.3148 60.5151C29.9285 59.5823 29.3276 58.7538 28.5609 58.0969C27.7942 57.44 26.8832 56.9733 25.9022 56.7348C19.366 55.1491 19.366 45.851 25.9022 44.2653C26.8841 44.0274 27.796 43.561 28.5636 42.9041C29.3312 42.2471 29.9328 41.4182 30.3195 40.4848C30.7062 39.5514 30.8671 38.5399 30.789 37.5326C30.7109 36.5253 30.3961 35.5507 29.8701 34.688C26.3712 28.9447 32.9446 22.3675 38.6918 25.8664C42.3991 28.1295 47.238 26.1269 48.2653 21.9022Z" stroke="white" stroke-width="9" stroke-linecap="round" stroke-linejoin="round"/>
</svg>
