<svg width="77" height="77" viewBox="0 0 77 77" fill="none" xmlns="http://www.w3.org/2000/svg">
<path d="M32.2653 9.90217C33.8509 3.36594 43.1491 3.36594 44.7347 9.90217C44.9726 10.8841 45.439 11.796 46.096 12.5636C46.7529 13.3312 47.5818 13.9328 48.5152 14.3195C49.4486 14.7062 50.4601 14.8671 51.4674 14.789C52.4747 14.7109 53.4494 14.396 54.312 13.8701C60.0554 10.3712 66.6326 16.9446 63.1337 22.6917C62.6085 23.554 62.2941 24.528 62.2162 25.5347C62.1383 26.5413 62.299 27.5521 62.6852 28.4849C63.0715 29.4177 63.6724 30.2463 64.4391 30.9031C65.2059 31.56 66.1168 32.0267 67.0978 32.2653C73.6341 33.8509 73.6341 43.1491 67.0978 44.7347C66.1159 44.9726 65.204 45.439 64.4364 46.096C63.6688 46.7529 63.0672 47.5818 62.6805 48.5152C62.2938 49.4486 62.1329 50.4601 62.211 51.4674C62.2891 52.4747 62.604 53.4494 63.1299 54.312C66.6288 60.0554 60.0554 66.6326 54.3083 63.1337C53.446 62.6085 52.472 62.2941 51.4653 62.2162C50.4587 62.1383 49.4479 62.299 48.5151 62.6852C47.5823 63.0715 46.7537 63.6724 46.0969 64.4391C45.44 65.2059 44.9733 66.1168 44.7347 67.0978C43.1491 73.6341 33.8509 73.6341 32.2653 67.0978C32.0274 66.1159 31.561 65.204 30.904 64.4364C30.2471 63.6688 29.4182 63.0672 28.4848 62.6805C27.5514 62.2938 26.5399 62.1329 25.5326 62.211C24.5253 62.2891 23.5506 62.604 22.688 63.1299C16.9446 66.6288 10.3674 60.0554 13.8663 54.3083C14.3915 53.446 14.7059 52.472 14.7838 51.4653C14.8617 50.4587 14.701 49.4479 14.3148 48.5151C13.9285 47.5823 13.3276 46.7537 12.5608 46.0969C11.7941 45.44 10.8832 44.9733 9.90217 44.7347C3.36594 43.1491 3.36594 33.8509 9.90217 32.2653C10.8841 32.0274 11.796 31.561 12.5636 30.904C13.3312 30.2471 13.9328 29.4182 14.3195 28.4848C14.7062 27.5514 14.8671 26.5399 14.789 25.5326C14.7109 24.5253 14.396 23.5506 13.8701 22.688C10.3712 16.9446 16.9446 10.3674 22.6917 13.8663C26.3991 16.1294 31.2379 14.1269 32.2653 9.90217Z" fill="#2563EB" stroke="#2563EB" stroke-opacity="0.67" stroke-width="9" stroke-linecap="round" stroke-linejoin="round"/>
</svg>
